<?xml version="1.0" standalone="no"?>
<!DOCTYPE svg PUBLIC "-//W3C//DTD SVG 20010904//EN"
 "http://www.w3.org/TR/2001/REC-SVG-20010904/DTD/svg10.dtd">
<svg version="1.0" xmlns="http://www.w3.org/2000/svg"
 width="87.000000pt" height="87.000000pt" viewBox="0 0 87.000000 87.000000"
 preserveAspectRatio="xMidYMid meet">
<metadata>
Created by potrace 1.11, written by Peter Selinger 2001-2013
</metadata>
<g transform="translate(0.000000,87.000000) scale(0.100000,-0.100000)"
fill="#000000" stroke="none">
<path d="M190 781 c-48 -25 -78 -82 -86 -163 l-7 -68 -38 0 c-22 0 -39 -4 -39
-10 0 -5 18 -10 40 -10 l40 0 0 -214 c0 -229 -4 -246 -51 -246 -10 0 -19 -4
-19 -10 0 -6 50 -10 130 -10 80 0 130 4 130 10 0 6 -9 10 -21 10 -23 0 -60 18
-71 34 -4 6 -8 104 -8 219 l0 207 50 0 c28 0 50 5 50 10 0 6 -23 10 -51 10
l-51 0 4 96 c3 86 5 98 27 115 22 18 71 26 84 13 3 -4 -2 -18 -13 -31 -28 -36
-13 -67 34 -71 30 -3 38 1 48 22 34 76 -91 136 -182 87z"/>
<path d="M670 781 c-48 -25 -78 -82 -86 -163 l-7 -68 -38 0 c-22 0 -39 -4 -39
-10 0 -5 18 -10 40 -10 l40 0 0 -214 c0 -229 -4 -246 -51 -246 -10 0 -19 -4
-19 -10 0 -6 50 -10 130 -10 80 0 130 4 130 10 0 6 -9 10 -21 10 -23 0 -60 18
-71 34 -4 6 -8 104 -8 219 l0 207 50 0 c28 0 50 5 50 10 0 6 -23 10 -51 10
l-51 0 4 96 c3 86 5 98 27 115 22 18 71 26 84 13 3 -4 -2 -18 -13 -31 -28 -36
-13 -67 34 -71 30 -3 38 1 48 22 34 76 -91 136 -182 87z"/>
<path d="M390 440 l0 -59 -57 -4 -58 -3 58 -2 57 -2 0 -55 c0 -30 5 -55 10
-55 6 0 10 25 10 55 l0 54 58 4 57 3 -57 2 -58 2 0 60 c0 33 -4 60 -10 60 -6
0 -10 -27 -10 -60z"/>
</g>
</svg>
