<?xml version="1.0"?>
<svg width="100" height="100" xmlns="http://www.w3.org/2000/svg" xmlns:svg="http://www.w3.org/2000/svg">
 <style type="text/css">.st0{fill:none;stroke:#000000;stroke-width:2;stroke-linecap:round;stroke-linejoin:round;stroke-miterlimit:10;}
	.st1{fill:none;stroke:#000000;stroke-width:2;stroke-miterlimit:10;}</style>
 <g class="layer">
  <title>Layer 1</title>
  <g id="svg_8">
   <path d="m2.33288,99.2l95.43424,0c0.79973,0 1.33288,-0.55493 1.33288,-1.38732l0,-11.79226c0,-0.83239 -0.53315,-1.38732 -1.33288,-1.38732l-2.53247,0l0,-5.41056l2.53247,0c0.79973,0 1.33288,-0.55493 1.33288,-1.38733l0,-11.79225c0,-0.83239 -0.53315,-1.38732 -1.33288,-1.38732l-2.53247,0l0,-5.41057l2.53247,0c0.79973,0 1.33288,-0.55493 1.33288,-1.38732l0,-11.79225c0,-0.8324 -0.53315,-1.38733 -1.33288,-1.38733l-13.3288,0l0,-4.43943c0,0 0,-0.13874 0,-0.13874c0,-0.69366 0.26657,-4.7169 4.3985,-8.04648c1.99932,-1.66478 3.06563,-3.46831 3.06563,-5.41056c0,-0.97113 -0.26658,-1.94225 -0.66644,-2.49718c1.0663,-0.8324 1.73274,-2.35845 1.73274,-4.02324c0,-1.52606 -0.53315,-2.91338 -1.59945,-3.88451c0.13328,-0.55493 0.26657,-0.97112 0.26657,-1.52605c0,-1.80353 -0.79973,-3.32958 -1.99932,-4.16198c0,-0.13873 0,-0.27746 0,-0.41619c0,-2.08099 -1.0663,-4.16197 -2.66576,-4.99437c-0.39986,-2.08099 -1.99932,-3.60704 -3.99864,-3.60704c-1.86603,0 -3.3322,1.38732 -3.59878,3.60704c-1.86603,0.55493 -3.3322,2.77465 -3.3322,4.85563c0,0.27747 0,0.55493 0,0.69367c-0.93302,0.83239 -1.46617,2.21971 -1.46617,3.74577c0,0.55493 0.13329,1.10986 0.26658,1.52606c-0.93302,0.83239 -1.59946,2.35845 -1.59946,3.8845c0,1.66479 0.79973,3.19085 1.86603,4.02324c-0.39986,0.69367 -0.66644,1.52606 -0.66644,2.49719c0,1.94225 1.06631,3.74577 3.06563,5.41056c3.99864,3.19084 4.26522,7.07535 4.26522,7.90775l0,0.13873c0,0 0,0.13873 0,0.13873c0,0 0,0 0,0l0,4.43944l-19.59335,0l0,-4.43944c0,0 0,-0.13873 0,-0.13873c0,-0.69366 0.26658,-4.7169 4.39851,-8.04648c1.99932,-1.66479 3.06562,-3.46831 3.06562,-5.41056c0,-0.97113 -0.26657,-1.94226 -0.66644,-2.49719c1.06631,-0.83239 1.73275,-2.35845 1.73275,-4.02324c0,-1.52605 -0.53315,-2.91338 -1.59946,-3.8845c0.13329,-0.55493 0.26658,-0.97113 0.26658,-1.52606c0,-1.80352 -0.79973,-3.32958 -1.99932,-4.16197c0,-0.13873 0,-0.27747 0,-0.4162c0,-2.08098 -1.06631,-4.16197 -2.66576,-4.99436c-0.39987,-2.08099 -1.99932,-3.60705 -3.99865,-3.60705c-1.86603,0 -3.3322,1.38733 -3.59877,3.60705c-1.86604,0.55493 -3.3322,2.77464 -3.3322,4.85563c0,0.27746 0,0.55493 0,0.69366c-0.93302,0.8324 -1.46617,2.21972 -1.46617,3.74578c0,0.55493 0.13329,1.10986 0.26657,1.52605c-0.93301,0.8324 -1.59945,2.35845 -1.59945,3.88451c0,1.66479 0.79973,3.19084 1.86603,4.02324c-0.39986,0.69366 -0.66644,1.52605 -0.66644,2.49718c0,1.94226 1.0663,3.74578 3.06562,5.41056c3.86536,3.19085 4.26522,7.07536 4.26522,7.90775l0,0.13873c0,0 0,0.13874 0,0.13874c0,0 0,0 0,0l0,4.43943l-19.72663,0l0,-4.43943c0,0 0,-0.13874 0,-0.13874c0,-0.69366 0.26658,-4.7169 4.39851,-8.04648c1.99932,-1.66478 3.06562,-3.4683 3.06562,-5.41056c0,-0.97113 -0.26657,-1.94225 -0.66644,-2.49718c1.06631,-0.8324 1.73275,-2.35845 1.73275,-4.02324c0,-1.52606 -0.53316,-2.91338 -1.59946,-3.88451c0.13329,-0.55493 0.26658,-0.97112 0.26658,-1.52605c0,-1.80353 -0.79973,-3.32958 -1.99932,-4.16198c0,-0.13873 0,-0.27746 0,-0.41619c0,-2.08099 -1.06631,-4.16197 -2.66577,-4.99437c-0.39986,-2.08098 -1.99932,-3.60704 -3.99864,-3.60704c-1.86603,0 -3.3322,1.38732 -3.59877,3.60704c-1.86604,0.55493 -3.33221,2.77465 -3.33221,4.85563c0,0.27747 0,0.55493 0,0.69367c-0.93301,0.83239 -1.46616,2.21971 -1.46616,3.74577c0,0.55493 0.13328,1.10986 0.26657,1.52606c-0.93301,0.83239 -1.59945,2.35845 -1.59945,3.8845c0,1.66479 0.79972,3.19085 1.86603,4.02324c-0.39987,0.69367 -0.66644,1.52606 -0.66644,2.49719c0,1.94225 1.0663,3.74577 3.06562,5.41056c3.99864,3.19085 4.26522,7.07535 4.26522,7.90775l0,0.13873c0,0 0,0.13873 0,0.13873c0,0 0,0 0,0l0,4.43944l-19.59334,0l0,-4.43944c0,0 0,-0.13873 0,-0.13873c0,-0.69366 0.26657,-4.7169 4.3985,-8.04648c1.99932,-1.66479 3.06563,-3.46831 3.06563,-5.41056c0,-0.97113 -0.26658,-1.94226 -0.66644,-2.49719c1.0663,-0.83239 1.73274,-2.35845 1.73274,-4.02324c0,-1.52605 -0.53315,-2.91338 -1.59945,-3.8845c0.13328,-0.55493 0.26657,-0.97113 0.26657,-1.52606c0,-1.80352 -0.79973,-3.32958 -1.99932,-4.16197c0,-0.13873 0,-0.27747 0,-0.4162c0,-2.08098 -1.0663,-4.16197 -2.66576,-4.99436c-0.39986,-2.08099 -1.99932,-3.60705 -3.99864,-3.60705c-1.86603,0 -3.3322,1.38733 -3.59878,3.60705c-1.86603,0.55493 -3.3322,2.77464 -3.3322,4.85563c0,0.27746 0,0.55493 0,0.69366c-0.93302,0.8324 -1.46617,2.21972 -1.46617,3.74578c0,0.55493 0.13329,1.10986 0.26658,1.52605c-0.93302,0.8324 -1.59946,2.35845 -1.59946,3.88451c0,1.66479 0.79973,3.19084 1.86603,4.02324c-0.39986,0.69366 -0.66644,1.52606 -0.66644,2.49718c0,1.94226 1.06631,3.74578 3.06563,5.41057c3.86535,3.19084 4.26522,7.07535 4.26522,7.90774l0,0.13873c0,0 0,0.13874 0,0.13874c0,0 0,0 0,0l0,4.43943l-12.52908,0c-0.79973,0 -1.33288,0.55493 -1.33288,1.38733l0,11.79225c0,0.83239 0.53315,1.38732 1.33288,1.38732l2.66576,0l0,5.41057l-2.66576,0c-0.79973,0 -1.33288,0.55493 -1.33288,1.38732l0,11.79225c0,0.8324 0.53315,1.38733 1.33288,1.38733l2.66576,0l0,5.41056l-2.66576,0c-0.79973,0 -1.33288,0.55493 -1.33288,1.38733l0,11.79225c0,1.80352 0.66644,2.49718 1.33288,2.49718zm82.10544,-92.39577c0,0.13873 0.13328,0.4162 0.26657,0.55493c0.26658,0.27746 0.66644,0.4162 0.93302,0.4162c0.53315,0 1.33288,1.10986 1.33288,2.35845c0,0.27746 0,0.55493 -0.13329,0.83239c-0.13329,0.4162 0,0.69366 0.13329,1.10986c0.13329,0.27746 0.53315,0.55493 0.79973,0.69366c0.53315,0.13873 1.19959,0.8324 1.19959,2.08099c0,0.55493 -0.13329,0.97112 -0.39986,1.38732c-0.26658,0.4162 -0.26658,0.8324 -0.13329,1.24859c0.13329,0.4162 0.39986,0.69367 0.79973,0.8324c0.53315,0.13873 1.0663,0.97112 1.0663,1.94225c0,1.10986 -0.66644,2.08099 -1.33288,2.08099c-0.79973,0 -1.33288,0.55493 -1.33288,1.38732c0,0.55493 0.26658,1.10986 0.79973,1.24859c0.26657,0.27747 0.79973,0.97113 0.79973,1.80352c0,1.2486 -1.06631,2.35845 -1.99932,3.19085c-1.1996,0.97113 -1.99932,1.94225 -2.79905,2.91338l0,-26.08169zm-22.25911,0c0,0.13873 0.13329,0.4162 0.26658,0.55493c0.26658,0.27746 0.66644,0.4162 0.93302,0.4162c0.53315,0 1.33288,1.10986 1.33288,2.35845c0,0.27746 0,0.55493 -0.13329,0.83239c-0.13329,0.4162 0,0.69366 0.13329,1.10986c0.13328,0.27746 0.53315,0.55493 0.79972,0.69366c0.53316,0.13873 1.1996,0.8324 1.1996,2.08099c0,0.55493 -0.13329,0.97112 -0.39987,1.38732c-0.26657,0.4162 -0.26657,0.8324 -0.13329,1.24859c0.13329,0.4162 0.39987,0.69367 0.79973,0.8324c0.53315,0.13873 1.06631,0.97112 1.06631,1.94225c0,1.10986 -0.66644,2.08099 -1.33288,2.08099c-0.79973,0 -1.33288,0.55493 -1.33288,1.38732c0,0.55493 0.26657,1.10986 0.79972,1.24859c0.26658,0.27747 0.79973,0.97113 0.79973,1.80352c0,1.2486 -1.0663,2.35845 -1.99932,3.19085c-1.19959,0.97113 -1.99932,1.94225 -2.79905,2.91338l0,-26.08169zm-22.39239,0c0,0.13873 0.13329,0.4162 0.26658,0.55493c0.26657,0.27746 0.66644,0.4162 0.93301,0.4162c0.53316,0 1.33288,1.10986 1.33288,2.35845c0,0.27746 0,0.55493 -0.13328,0.83239c-0.13329,0.4162 0,0.69366 0.13328,1.10986c0.13329,0.27746 0.53316,0.55493 0.79973,0.69366c0.53315,0.13873 1.19959,0.8324 1.19959,2.08099c0,0.55493 -0.13328,0.97112 -0.39986,1.38732c-0.26658,0.4162 -0.26658,0.8324 -0.13329,1.24859c0.13329,0.4162 0.39987,0.69367 0.79973,0.8324c0.53315,0.13873 1.06631,0.97112 1.06631,1.94225c0,1.10986 -0.66644,2.08099 -1.33289,2.08099c-0.79972,0 -1.33288,0.55493 -1.33288,1.38732c0,0.55493 0.26658,1.10986 0.79973,1.24859c0.26658,0.27747 0.79973,0.97113 0.79973,1.80352c0,1.2486 -1.0663,2.35845 -1.99932,3.19085c-1.19959,0.97113 -1.99932,1.94225 -2.79905,2.91338l0,-26.08169zm-22.2591,0c0,0.13873 0.13329,0.4162 0.26657,0.55493c0.26658,0.27746 0.66644,0.4162 0.93302,0.4162c0.53315,0 1.33288,1.10986 1.33288,2.35845c0,0.27746 0,0.55493 -0.13329,0.83239c-0.13329,0.4162 0,0.69366 0.13329,1.10986c0.13329,0.27746 0.53315,0.55493 0.79973,0.69366c0.53315,0.13873 1.19959,0.8324 1.19959,2.08099c0,0.55493 -0.13329,0.97112 -0.39986,1.38732c-0.26658,0.4162 -0.26658,0.8324 -0.13329,1.24859c0.13329,0.4162 0.39986,0.69367 0.79973,0.8324c0.53315,0.13873 1.0663,0.97112 1.0663,1.94225c0,1.10986 -0.66644,2.08099 -1.33288,2.08099c-0.79973,0 -1.33288,0.55493 -1.33288,1.38732c0,0.55493 0.26658,1.10986 0.79973,1.24859c0.26658,0.27747 0.79973,0.97113 0.79973,1.80352c0,1.2486 -1.06631,2.35845 -1.99932,3.19085c-1.1996,0.97113 -1.99932,1.94225 -2.79905,2.91338l0,-26.08169zm61.57908,23.02958c-0.93302,-0.69367 -1.99933,-1.94226 -1.99933,-3.19085c0,-1.24859 0.93302,-2.08098 0.93302,-2.08098c0.39986,-0.4162 0.66644,-0.97113 0.39986,-1.52606s-0.66644,-0.97113 -1.19959,-0.97113c-0.79973,0 -1.33288,-0.97112 -1.33288,-2.08098c0,-1.10986 0.53315,-1.80352 1.06631,-1.94226c0.39986,-0.13873 0.66644,-0.41619 0.79972,-0.83239c0.13329,-0.4162 0.13329,-0.8324 -0.13328,-1.24859c-0.26658,-0.4162 -0.39987,-0.8324 -0.39987,-1.38733c0,-0.97112 0.53315,-1.66479 0.93302,-1.94225c0.66644,-0.27747 0.93302,-1.10986 0.66644,-1.66479c-0.13329,-0.27746 -0.13329,-0.55493 -0.13329,-0.83239c0,-1.24859 1.06631,-2.35845 1.86603,-2.35845c0,0 0,0 0,0c0.39987,0 0.79973,-0.13874 1.06631,-0.4162c0.13329,-0.13873 0.13329,-0.13873 0.26657,-0.27747l0,25.38803c-0.79972,-0.83239 -1.73274,-1.80352 -2.79904,-2.63591zm-22.25911,0c-0.93302,-0.69367 -1.99932,-1.94226 -1.99932,-3.19085c0,-1.24859 0.93302,-2.08098 0.93302,-2.08098c0.39986,-0.4162 0.66644,-0.97113 0.39986,-1.52606s-0.66644,-0.97113 -1.19959,-0.97113c-0.79973,0 -1.33288,-0.97112 -1.33288,-2.08098c0,-1.10986 0.53315,-1.80352 1.0663,-1.94226c0.39987,-0.13873 0.66644,-0.41619 0.79973,-0.83239c0.13329,-0.4162 0.13329,-0.8324 -0.13329,-1.24859c-0.26657,-0.4162 -0.39986,-0.8324 -0.39986,-1.38733c0,-0.97112 0.53315,-1.66479 0.93301,-1.94225c0.66645,-0.27747 0.93302,-1.10986 0.66645,-1.66479c-0.13329,-0.27746 -0.13329,-0.55493 -0.13329,-0.83239c0,-1.24859 1.0663,-2.35845 1.86603,-2.35845c0,0 0,0 0,0c0.39986,0 0.79973,-0.13874 1.0663,-0.4162c0.13329,-0.13873 0.13329,-0.13873 0.13329,-0.27747l0,25.38803c-0.79973,-0.83239 -1.59945,-1.80352 -2.66576,-2.63591zm-22.39239,0c-0.93302,-0.69367 -1.99932,-1.94226 -1.99932,-3.19085c0,-1.24859 0.93302,-2.08098 0.93302,-2.08098c0.39986,-0.4162 0.66644,-0.97113 0.39986,-1.52606s-0.66644,-0.97113 -1.19959,-0.97113c-0.79973,0 -1.33288,-0.97112 -1.33288,-2.08098c0,-1.10986 0.53315,-1.80352 1.0663,-1.94226c0.39986,-0.13873 0.66644,-0.41619 0.79973,-0.83239c0.13329,-0.4162 0.13329,-0.8324 -0.13329,-1.24859c-0.26658,-0.4162 -0.39986,-0.8324 -0.39986,-1.38733c0,-0.83239 0.39986,-1.66479 0.93301,-1.94225c0.66644,-0.27747 0.93302,-1.10986 0.66644,-1.66479c-0.13328,-0.27746 -0.13328,-0.55493 -0.13328,-0.83239c0,-1.24859 1.0663,-2.35845 1.86603,-2.35845c0,0 0,0 0,0c0.39986,0 0.79973,-0.13874 1.0663,-0.4162c0.13329,-0.13873 0.13329,-0.13873 0.26658,-0.27747l0,25.38803c-0.79973,-0.83239 -1.59946,-1.80352 -2.79905,-2.63591zm-22.2591,0c-0.93302,-0.69367 -1.99932,-1.94226 -1.99932,-3.19085c0,-1.24859 0.93301,-2.08098 0.93301,-2.08098c0.39987,-0.4162 0.66644,-0.97113 0.39987,-1.52606s-0.66644,-0.97113 -1.1996,-0.97113c-0.79973,0 -1.33288,-0.97112 -1.33288,-2.08098c0,-1.10986 0.53315,-1.80352 1.06631,-1.94226c0.39986,-0.13873 0.66644,-0.41619 0.79973,-0.83239c0.13328,-0.4162 0.13328,-0.8324 -0.13329,-1.24859c-0.26658,-0.4162 -0.39987,-0.8324 -0.39987,-1.38733c0,-0.97112 0.53316,-1.66479 0.93302,-1.94225c0.66644,-0.27747 0.93302,-1.10986 0.66644,-1.66479c-0.13329,-0.27746 -0.13329,-0.55493 -0.13329,-0.83239c0,-1.24859 1.06631,-2.35845 1.86603,-2.35845c0,0 0,0 0,0c0.39987,0 0.79973,-0.13874 1.06631,-0.4162c0.13329,-0.13873 0.13329,-0.13873 0.13329,-0.27747l0,25.38803c-0.66644,-0.83239 -1.59946,-1.80352 -2.66576,-2.63591zm-8.53044,26.63662l0,-9.01761l92.76848,0l0,9.01761l-92.76848,0zm88.90313,2.77464l0,5.41057l-84.90449,0l0,-5.41057l84.90449,0zm-88.90313,17.20282l0,-9.01761l92.76848,0l0,9.01761l-92.76848,0zm88.90313,2.77465l0,5.41056l-84.90449,0l0,-5.41056l84.90449,0zm-88.90313,8.04648l92.76848,0l0,9.0176l-92.76848,0l0,-9.0176z" fill="black" id="svg_1" stroke="#000000"/>
   <circle cx="9.530435" cy="51.892256" id="svg_2" r="1.599456"/>
   <circle cx="9.530435" cy="71.869721" id="svg_3" r="1.599456"/>
   <circle cx="9.530435" cy="91.847185" id="svg_4" r="1.599456"/>
   <circle cx="90.302991" cy="51.892256" id="svg_5" r="1.599457"/>
   <circle cx="90.302991" cy="71.869721" id="svg_6" r="1.599457"/>
   <circle cx="90.302991" cy="91.847185" id="svg_7" r="1.599457"/>
  </g>
 </g>
</svg>