<svg height='300px' width='300px'  fill="#000000" xmlns="http://www.w3.org/2000/svg" xmlns:xlink="http://www.w3.org/1999/xlink" xmlns:a="http://ns.adobe.com/AdobeSVGViewerExtensions/3.0/" version="1.1" x="0px" y="0px" viewBox="-2.584 -4.908 100 100" enable-background="new -2.584 -4.908 100 100" xml:space="preserve"><path d="M61.611,39.668l-6.058,5.841c0,0-1.734,2.376-0.003,4.323c1.732,1.946,12.546,10.607,12.546,10.607s13.923,4.686,24.74,2.74  l-0.112,0.115c1.95-10.817-2.729-24.744-2.729-24.744S81.347,27.731,79.401,26c-1.948-1.73-4.326-0.003-4.326-0.003l-5.847,6.059  l-5.757-4.415l-6.615,6.616L61.611,39.668z"></path><path d="M31.29,2.423c-3.895,3.893-0.001,8.222-0.001,8.222l17.087,14.988l2.38,0l5.068,5.359l4.713-4.71l-5.353-5.076l-0.001-2.378  L40.206,1.733c0,0-4.325-3.896-8.216-0.004L31.29,2.423z"></path><path d="M68.374,88.598c3.895-3.895,0.004-8.221,0.004-8.221L51.291,65.392l-2.38-0.002l-5.072-5.358l-4.713,4.71l5.355,5.074  l-0.003,2.379l14.978,17.096c0,0,4.326,3.898,8.222,0.004L68.374,88.598z"></path><path d="M38.458,60.213l-3.03,3.025l-4.472-4.615l-5.481,5.336c0,0-2.454,2.161-4.616-0.001c-2.161-2.166-20.62-24.671-20.62-24.671  s-1.438-4.759,2.744-3.17l12.4,11.109l3.031-2.262L7.599,32.656c0,0-1.443-2.165,0.145-3.752l0.258-0.258  c1.589-1.587,3.752-0.145,3.752-0.145l12.303,10.823l2.259-3.028L15.215,23.887c-1.584-4.184,3.175-2.74,3.175-2.74  s22.494,18.47,24.656,20.635c2.163,2.163,0.001,4.615,0.001,4.615l-5.339,5.478l4.614,4.473l-3.03,3.029L38.458,60.213z"></path></svg>