<?xml version="1.0" encoding="iso-8859-1"?>
<!-- Generator: Adobe Illustrator 18.0.0, SVG Export Plug-In . SVG Version: 6.00 Build 0)  -->
<!DOCTYPE svg PUBLIC "-//W3C//DTD SVG 1.1//EN" "http://www.w3.org/Graphics/SVG/1.1/DTD/svg11.dtd">
<svg version="1.1" id="Capa_1" xmlns="http://www.w3.org/2000/svg" xmlns:xlink="http://www.w3.org/1999/xlink" x="0px" y="0px"
	 viewBox="0 0 291.133 291.133" style="enable-background:new 0 0 291.133 291.133;" xml:space="preserve">
<g>
	<path d="M158.29,71.493c-0.825,0.154-34.306,7.511-66.695,29.665c-29.814,20.396-69.824,58.122-91.13,122.045
		c-0.805,2.406-0.555,5.042,0.681,7.255c0.412,0.736,0.916,1.401,1.5,1.985c1.177,1.177,2.667,2.017,4.316,2.406l25.974,6.117
		c2.43,0.572,4.994,0.099,7.075-1.286c2.078-1.387,3.494-3.58,3.906-6.044c0.032-0.205,3.571-20.605,19.786-46.485
		c14.292-22.806,45.567-54.5,95.052-78.653C158.398,92.44,158.343,83.678,158.29,71.493z"/>
	<path d="M193.65,37.586c-3.149,3.784-10.044,12.775-21.309,29.158c0,0,0.001,28.096,0.765,52.403l42.663,12.295
		c0,0,1.594-15.064,9.548-26.633c7.702-11.204,63.717-6.304,65.814-96.389c0.055-2.379-0.749-8.665-6.928-6.527
		c-15.952,5.521-71.995,27.743-85.727,32.281C197.073,34.638,195.173,35.755,193.65,37.586z M191.915,100.124
		c-3.599-3.599-3.468-9.566,0.293-13.327c3.761-3.761,9.728-3.893,13.327-0.293c3.601,3.601,3.474,9.573-0.286,13.334
		C201.487,103.599,195.516,103.725,191.915,100.124z"/>
	<path d="M176.834,133.59c-23.832,46.538-52.229,78.551-74.309,92.384c-25.878,16.216-46.28,19.754-46.457,19.781
		c-2.477,0.398-4.674,1.81-6.072,3.89c-1.395,2.086-1.859,4.655-1.286,7.096l6.117,25.974c0.389,1.649,1.229,3.14,2.406,4.316
		c0.584,0.584,1.25,1.089,1.985,1.5c2.214,1.237,4.848,1.484,7.256,0.682c63.922-21.306,101.648-61.317,122.044-91.131
		c13.479-19.705,19.331-43.501,23.479-54.682L176.834,133.59z"/>
</g>
<g>
</g>
<g>
</g>
<g>
</g>
<g>
</g>
<g>
</g>
<g>
</g>
<g>
</g>
<g>
</g>
<g>
</g>
<g>
</g>
<g>
</g>
<g>
</g>
<g>
</g>
<g>
</g>
<g>
</g>
</svg>
